Coordinates
version=1
nRows=7
nColumns=40
inDegrees=yes

Units are S.I. units (second, meters, Newtons, ...)
Angles are in degrees.

endheader
time	pelvis_tilt	pelvis_list	pelvis_rotation	pelvis_tx	pelvis_ty	pelvis_tz	hip_flexion_r	hip_adduction_r	hip_rotation_r	knee_angle_r	knee_angle_r_beta	ankle_angle_r	subtalar_angle_r	mtp_angle_r	hip_flexion_l	hip_adduction_l	hip_rotation_l	knee_angle_l	knee_angle_l_beta	ankle_angle_l	subtalar_angle_l	mtp_angle_l	lumbar_extension	lumbar_bending	lumbar_rotation	arm_flex_r	arm_add_r	arm_rot_r	elbow_flex_r	pro_sup_r	wrist_flex_r	wrist_dev_r	arm_flex_l	arm_add_l	arm_rot_l	elbow_flex_l	pro_sup_l	wrist_flex_l	wrist_dev_l
     24.24814286	     -7.52921541	     -0.83479330	     10.82984243	      0.90267725	      0.90790043	      0.37627824	     14.50709226	    -12.57210967	     -8.59891665	     45.96208767	     45.96208767	      7.03525777	    -16.98543484	    -17.87402598	     23.15433962	      4.28444175	      3.40192698	     32.26153640	     32.26153640	     19.19483552	    -17.94804566	     11.49997391	     -9.52962093	      7.03917048	      8.20032130	     20.68335835	    -18.43858107	    -15.09292138	     47.64612206	     46.32280610	      0.00000000	      0.00000000	      9.30791914	    -12.20096674	     19.33779899	     37.63794024	     46.30138216	      0.00000000	      0.00000000
     24.27378571	     -7.43650276	     -0.71814289	     10.58712909	      0.90031180	      0.90718481	      0.37493993	     16.69616935	    -13.10738624	     -7.61950760	     50.05738819	     50.05738819	      5.03607967	    -17.83195960	    -17.68690787	     22.96328829	      4.40478913	      3.23645801	     32.56116072	     32.56116072	     19.51513917	    -18.05074890	     11.40554498	     -9.71228556	      6.89955449	      7.40208322	     17.04019294	    -17.31950242	    -15.10022744	     45.30470822	     46.38215081	      0.00000000	      0.00000000	     13.19893834	    -12.78537638	     18.81428521	     39.08903795	     46.41112575	      0.00000000	      0.00000000
     24.29942857	     -7.51580585	     -0.70356948	     10.23254690	      0.89779035	      0.90658052	      0.37422263	     19.28454242	    -13.38654824	     -6.47675167	     54.10748851	     54.10748851	      3.24318501	    -18.41570033	    -16.20427429	     22.86305047	      4.38636384	      3.04803983	     32.62451989	     32.62451989	     19.86293893	    -18.07440969	     11.39429987	     -9.78318932	      6.83176115	      7.81057388	     12.98880101	    -16.93987875	    -15.31715305	     41.90335267	     46.48960675	      0.00000000	      0.00000000	     17.39637838	    -12.82527442	     18.22742833	     41.14520297	     46.53372953	      0.00000000	      0.00000000
     24.32507143	     -7.31656199	     -0.92446220	      9.95255527	      0.89552014	      0.90685830	      0.37434611	     21.69188669	    -12.94561426	     -5.25853622	     58.07751267	     58.07751267	      3.73203086	    -18.28411394	     -7.26793294	     22.46187436	      3.99853178	      2.90373512	     32.62170695	     32.62170695	     20.19186783	    -17.97863430	     11.46433517	    -10.04928673	      6.98302242	      7.73807051	     10.17413196	    -15.77654777	    -16.92278463	     36.65250372	     46.71949042	      0.00000000	      0.00000000	     21.65411466	    -13.19693751	     17.88625335	     42.86239945	     46.59503631	      0.00000000	      0.00000000
     24.35071429	     -7.21769234	     -1.05471203	      9.57534018	      0.89330048	      0.90745068	      0.37490741	     23.99591459	    -12.67960414	     -4.38909304	     61.08049276	     61.08049276	      3.18624647	    -18.50198275	     -2.87201163	     21.98213907	      3.65250119	      2.62890373	     32.29208014	     32.29208014	     20.24410120	    -17.87565849	     11.12829510	    -10.33147617	      7.02027365	      7.77120561	      6.42699743	    -14.93511042	    -17.16551124	     34.19241853	     46.77191554	      0.00000000	      0.00000000	     25.57446247	    -13.59732322	     16.94268713	     45.35403737	     46.72933395	      0.00000000	      0.00000000
     24.37635714	     -7.29763754	     -1.09649459	      9.11152701	      0.89104938	      0.90823338	      0.37605908	     26.32972101	    -12.55484728	     -3.78564409	     63.16519969	     63.16519969	      2.32839380	    -18.71477383	     -1.44313675	     21.57003703	      3.36333901	      2.23021768	     31.74342661	     31.74342661	     20.22967759	    -17.74170894	     11.02904169	    -10.42813969	      6.88959918	      7.57869018	      2.79253654	    -13.96750434	    -16.95272235	     32.42400163	     46.79164444	      0.00000000	      0.00000000	     29.32279636	    -14.16922064	     16.07258435	     47.41615179	     46.86165833	      0.00000000	      0.00000000
     24.40200000	     -7.26659030	     -1.42580180	      8.55156101	      0.88902950	      0.90967620	      0.37817700	     28.49111448	    -11.72166390	     -3.17824963	     64.48558286	     64.48558286	      3.46233084	    -18.66650960	      4.53107393	     20.96795189	      2.64273117	      1.78631516	     30.98830619	     30.98830619	     19.87585299	    -17.58065784	     10.08614039	    -10.70130989	      7.09865686	      7.49514703	     -0.93791563	    -13.11450112	    -16.12436530	     31.52077264	     46.70114543	      0.00000000	      0.00000000	     32.60863342	    -14.77370320	     14.21628313	     50.48637161	     47.06010486	      0.00000000	      0.00000000
